<svg width="1365" height="272" viewBox="0 0 1365 272" fill="none" xmlns="http://www.w3.org/2000/svg">
<path d="M0 172.362C0 119.318 30.4605 73.8974 84.1451 73.8974C103.368 73.8974 126.95 82.6131 139.635 104.052H140.724V0.488281H189.335V266.835H140.724V241.405H139.635C126.933 262.844 103.351 271.202 84.1451 271.202C30.4605 271.202 0 225.781 0 172.362ZM96.1148 231.939C128.397 231.939 141.814 203.233 141.814 172.345C141.814 141.456 128.397 113.109 96.1148 113.109C63.8325 113.109 50.3985 142.173 50.3985 172.345C50.3985 202.517 63.8154 231.939 96.1148 231.939Z" fill="white"/>
<path d="M213.035 212.324C213.035 179.253 239.512 161.821 284.496 158.188C286.811 158.001 289.025 157.813 291.17 157.626C313.373 155.63 339.628 155.289 339.628 155.289C339.628 155.289 339.27 141.525 339.27 136.391C339.27 120.034 325.853 111.318 305.898 111.318C283.406 111.318 268.899 119.318 268.167 141.115H221.378C221.378 105.144 254.393 73.8975 305.898 73.8975C351.972 73.8975 387.881 94.6035 387.881 144.748V230.131H404.567V266.835H368.3C354.151 266.835 342.539 256.295 342.539 242.138V238.863H341.45C325.853 259.945 303.719 271.202 277.242 271.202C239.154 271.202 213.035 249.046 213.035 212.341V212.324ZM289.944 234.139C313.526 234.139 339.645 214.712 339.645 185.359C339.645 185.359 312.079 186.177 294.303 188.361C273.258 190.902 262.753 198.526 262.753 212.699C262.753 226.873 274.365 234.139 289.961 234.139H289.944Z" fill="white"/>
<path d="M416.316 204.342H463.479C464.927 224.69 479.808 235.23 503.747 235.23C523.702 235.23 540.388 228.681 540.388 214.166C540.388 206.167 534.582 198.168 513.912 194.177L482.362 187.985C441.379 180.003 421.781 162.18 421.781 131.308C421.781 97.1619 452.259 73.8975 500.138 73.8975C548.016 73.8975 581.388 102.245 582.835 137.482H536.047C533.867 118.584 520.45 107.685 500.138 107.685C481.647 107.685 467.855 115.31 467.855 129.841C467.855 139.29 476.198 145.84 495.064 149.473L524.451 154.555C570.525 162.913 587.926 182.169 587.926 212.341C587.926 246.487 554.929 271.202 503.781 271.202C447.917 271.202 416.367 241.763 416.367 204.342H416.316Z" fill="white"/>
<path d="M658.024 108.777H659.114C670.726 84.4381 692.843 73.8974 717.872 73.8974C765.393 73.8974 782.437 101.511 782.437 141.115V266.835H733.826V148.023C733.826 128.033 723.304 114.235 702.991 114.235C673.246 114.235 658.024 138.574 658.024 168.729V266.835H609.413V0.488281H658.024V108.777Z" fill="white"/>
<path d="M816.185 0.488281H864.796V266.835H816.185V0.488281Z" fill="white"/>
<path d="M899.971 78.98H948.582V266.835H899.971V78.98Z" fill="white"/>
<path d="M1029.83 111.318H1030.92C1043.98 85.1545 1065.01 73.8975 1091.5 73.8975C1139.02 73.8975 1156.07 101.511 1156.07 141.115V266.835H1107.46V148.023C1107.46 128.033 1096.93 114.235 1076.62 114.235C1046.88 114.235 1031.65 138.574 1031.65 168.729V266.835H983.044V78.9802H1029.83V111.318Z" fill="white"/>
<path d="M1180.72 172.362C1180.72 115.668 1214.45 73.8975 1273.21 73.8975C1331.97 73.8975 1364.98 112.785 1364.98 172.362C1364.98 174.545 1364.98 182.169 1364.63 185.444H1229.33C1232.96 215.599 1248.91 232.331 1275.77 232.331C1295.35 232.331 1309.49 222.148 1315.3 205.075H1362.82C1353.75 249.046 1319.3 271.202 1275.77 271.202C1214.83 271.202 1180.74 229.414 1180.74 172.362H1180.72ZM1315.66 152.73C1312.39 124.742 1295.35 111.301 1273.59 111.301C1251.83 111.301 1235.5 126.191 1230.42 152.73H1315.66Z" fill="white"/>
<path d="M1029.83 0.488281H899.971V43.7253H1029.83V0.488281Z" fill="white"/>
</svg>
